<svg width="193" height="143" viewBox="0 0 193 143" fill="none" xmlns="http://www.w3.org/2000/svg">
<g clip-path="url(#clip0_791_17)">
<path fill-rule="evenodd" clip-rule="evenodd" d="M34.3055 24.136C35.4501 24.3531 36.7094 24.4882 37.8581 24.2889C39.2225 24.0521 40.1754 23.2762 41.0369 22.3766C42.1435 21.2207 43.1093 19.8646 44.2853 18.7464C44.7216 18.3309 45.1087 18.3039 45.2764 18.2896C45.7003 18.2535 46.0366 18.3744 46.3094 18.5626C46.633 18.785 47.0224 19.1848 46.996 19.9302C46.992 20.0368 46.9763 20.1935 46.9152 20.3851C46.8703 20.5254 46.6611 20.924 46.5967 21.1012C46.4395 21.5383 46.2702 21.9684 46.0959 22.3985C45.5158 23.8298 44.9704 25.0146 44.8678 26.5815C44.7281 28.7086 44.964 30.1982 45.822 31.2992C46.6516 32.3639 47.9929 33.0404 49.8438 33.6703C50.0234 33.7243 50.1982 33.7828 50.3678 33.8463C51.1712 34.1457 51.5878 35.0321 51.3057 35.842C51.024 36.6514 50.1469 37.0872 49.3312 36.8237C49.161 36.7686 48.9939 36.7132 48.8301 36.656C46.2725 35.901 42.5309 36.3603 40.0162 37.2085C39.241 37.4701 37.6905 38.5627 36.4423 39.1079C35.5212 39.51 34.6769 39.6362 34.0996 39.5174C33.7125 39.4384 33.4502 39.2622 33.2579 39.075C32.9785 38.8032 32.8111 38.4676 32.768 38.0645C32.7449 37.8441 32.7607 37.5763 32.8648 37.2836C32.9152 37.1427 33.1011 36.8189 33.1871 36.6734C33.3301 36.1059 33.4348 35.5313 33.5956 34.9684C33.9794 33.6253 33.8238 32.5416 33.6967 31.1559C33.5781 29.8593 33.2123 28.8739 32.4514 27.8129C32.3366 27.7019 31.4111 26.8047 31.1185 26.4294C30.6915 25.8805 30.6442 25.3521 30.6655 25.0948C30.7011 24.6582 30.8586 24.3506 31.0366 24.1215C31.2995 23.7836 31.6475 23.5663 32.0874 23.4841C32.3602 23.4326 32.7198 23.4377 33.1248 23.5747C33.4382 23.68 34.1987 24.08 34.3055 24.136ZM41.758 25.9446C41.7427 26.0855 41.7304 26.2289 41.7207 26.3752C41.5162 29.4905 42.0774 31.6252 43.3346 33.2378L43.3772 33.2912C41.8036 33.4633 40.278 33.792 39.0083 34.2202C38.4856 34.3964 37.635 34.9005 36.74 35.4041C37.1068 33.8464 36.9891 32.5247 36.8378 30.8683C36.7216 29.6037 36.4459 28.5418 35.9445 27.5144C36.7735 27.5605 37.6058 27.5333 38.3974 27.396C39.7154 27.1672 40.8039 26.6453 41.758 25.9446Z" fill="#FF6B01"/>
</g>
<path d="M65.1667 58.0922C62.7516 58.5989 59.7985 58.3577 56.3074 57.3685C55.4295 57.1198 54.7726 56.6359 54.3366 55.9169C53.9269 55.1833 53.8204 54.4694 54.017 53.7752C54.5895 51.754 55.9895 50.276 58.2172 49.3413C60.4652 48.4123 62.6202 48.24 64.6822 48.8242C65.3968 49.0267 66.0912 49.3778 66.7657 49.8777C67.4605 50.3833 67.7443 50.8607 67.6171 51.3099C67.5477 51.5549 67.3951 51.7432 67.1593 51.8749C66.9235 52.0066 66.6832 52.0377 66.4382 51.9683C66.1932 51.8989 65.8954 51.7043 65.5449 51.3844C65.1945 51.0646 64.7334 50.8237 64.1617 50.6617C62.5693 50.2105 60.8893 50.341 59.1217 51.0532C57.3599 51.745 56.2737 52.8156 55.8631 54.2652C55.7821 54.551 55.8308 54.8074 56.0091 55.0344C56.1874 55.2614 56.5828 55.4616 57.1953 55.6351C57.8078 55.8087 58.5747 55.9819 59.4962 56.1547C60.4176 56.3276 61.5837 56.4154 62.9944 56.4181C64.4051 56.4208 65.4772 56.2173 66.2108 55.8076C66.9444 55.3979 67.4745 55.2394 67.8011 55.3319C68.4136 55.5055 68.6331 55.8985 68.4596 56.511C68.4018 56.7151 68.1764 56.927 67.7834 57.1464C67.3904 57.3659 67.165 57.5777 67.1072 57.7819C66.8181 58.8027 68.613 59.8627 72.492 60.9617C73.5128 61.251 74.5404 61.3216 75.5748 61.1735C76.6296 61.0313 77.2668 60.5723 77.4866 59.7965C77.7063 59.0206 77.5532 58.3156 77.0271 57.6813C76.501 57.047 75.799 56.6055 74.9211 56.3568C74.6966 56.2932 74.3657 56.2546 73.9284 56.2409C73.5116 56.2331 73.2624 56.2176 73.1807 56.1945C72.5682 56.021 72.3487 55.628 72.5222 55.0155C72.609 54.7092 72.9524 54.5088 73.5526 54.4142C74.1586 54.2992 74.7883 54.3342 75.4416 54.5193C77.034 54.9705 78.1551 55.7623 78.8047 56.8948C79.4544 58.0272 79.6028 59.2161 79.25 60.4615C78.8973 61.7069 78.0043 62.5236 76.5712 62.9115C75.1381 63.2994 73.6048 63.262 71.9716 62.7992C67.5005 61.5324 65.2322 59.9634 65.1667 58.0922ZM104.603 64.4358C105.991 64.8292 106.53 66.0405 106.22 68.0699C106.211 68.1778 106.18 68.3673 106.125 68.6385C106.096 68.8951 106.072 69.0977 106.052 69.2464C106.032 69.3951 106.031 69.5161 106.048 69.6093C106.025 69.691 106.022 69.7784 106.04 69.8717C106.055 70.0524 106.134 70.163 106.277 70.2034C106.665 70.3134 107.194 70.353 107.864 70.3224C108.535 70.2917 108.9 70.2851 108.962 70.3025C109.574 70.476 109.794 70.869 109.62 71.4815C109.493 71.9307 109.094 72.1706 108.424 72.2012C107.217 72.2563 106.308 72.1971 105.695 72.0236C104.368 71.6476 103.907 70.2378 104.313 67.7943C104.445 66.8613 104.368 66.3543 104.082 66.2733C103.47 66.0998 102.491 66.5945 101.147 67.7576C100.65 68.1901 100.052 68.5499 99.353 68.8371C98.6541 69.1243 98.0087 69.184 97.4166 69.0163C96.8246 68.8485 96.4128 68.5113 96.1814 68.0046C95.95 67.498 95.8353 67.0464 95.8373 66.65C95.8305 66.207 95.8881 65.2639 96.0101 63.8208C96.1322 62.3777 96.1537 61.6009 96.0748 61.4903C96.0162 61.3855 95.9563 61.3244 95.8951 61.307C95.6093 61.226 95.302 61.3375 94.9734 61.6414C94.6709 61.9306 94.2973 62.3541 93.8526 62.9118C93.408 63.4695 92.9677 64.0505 92.5319 64.6548C92.1223 65.2445 91.7997 65.6824 91.5643 65.9686C91.3346 66.2344 91.0395 66.5367 90.6788 66.8756C90.0157 67.5038 89.2962 67.7079 88.5204 67.4881C87.9896 67.3377 87.5925 67.0267 87.3291 66.5551C87.0657 66.0835 86.9129 65.5329 86.8707 64.9034C86.827 63.656 86.9627 62.4373 87.2777 61.2473C87.6189 60.0428 87.7566 59.0893 87.6909 58.387C87.6514 57.67 87.4683 57.2653 87.1416 57.1727C86.08 56.8719 85.0987 57.2997 84.1978 58.4559C83.7735 59.0194 83.2537 59.8425 82.6382 60.9253C81.7846 62.3817 80.4997 63.2196 78.7835 63.4391C78.4048 63.5303 78.0419 63.5267 77.6948 63.4283C77.0823 63.2548 76.8628 62.8618 77.0363 62.2493C77.1462 61.8614 77.5421 61.6317 78.2239 61.5602C78.4979 61.5276 78.645 61.5141 78.6654 61.5199C78.712 61.5111 78.8053 61.4934 78.9451 61.4668C79.085 61.4403 79.1782 61.4226 79.2248 61.4138C79.2772 61.3845 79.3631 61.3537 79.4825 61.3214C79.6282 61.2744 79.7301 61.2261 79.7883 61.1764C79.8726 61.1121 79.9701 61.0405 80.0807 60.9615C80.2117 60.8884 80.3121 60.8065 80.3818 60.716C80.6319 60.4561 80.8876 60.0984 81.1488 59.6431C81.4101 59.1878 81.6381 58.8113 81.8327 58.5136C82.0273 58.2159 82.3629 57.7706 82.8396 57.1779C83.322 56.5647 83.7655 56.1279 84.1701 55.8676C84.5746 55.6073 85.0828 55.4094 85.6945 55.274C86.3325 55.1239 87.0394 55.1588 87.8152 55.3786C88.6114 55.6042 89.155 56.2545 89.446 57.3294C89.7632 58.3897 89.6587 59.8488 89.1325 61.7067C88.9474 62.36 88.7991 63.1561 88.6876 64.0949C88.5965 65.0395 88.7142 65.5581 89.0409 65.6506C89.2042 65.6969 89.4385 65.5317 89.7437 65.155C90.0546 64.7579 90.3147 64.4236 90.524 64.1521C90.739 63.8601 90.9918 63.5127 91.2823 63.1098C92.3864 61.548 93.3327 60.5038 94.1214 59.9774C94.9159 59.4306 95.6806 59.2613 96.4155 59.4696C97.273 59.7125 97.7756 60.274 97.9234 61.1539C98.0388 61.9144 98.0652 62.6387 98.0026 63.3267C97.7344 65.8311 97.6921 67.1094 97.8758 67.1614C98.4883 67.335 99.4665 66.8402 100.81 65.6771C101.308 65.2447 101.906 64.8848 102.605 64.5976C103.304 64.3104 103.97 64.2565 104.603 64.4358ZM117.659 59.3352C117.986 59.4278 118.279 59.6764 118.539 60.081C118.805 60.4651 118.892 60.8205 118.8 61.1472C118.713 61.4534 118.504 61.6477 118.172 61.7301C117.86 61.8182 117.541 61.816 117.214 61.7235C116.887 61.6309 116.652 61.4099 116.509 61.0604C116.391 60.6963 116.382 60.3408 116.48 59.9937C116.653 59.3812 117.046 59.1617 117.659 59.3352ZM111.676 69.9467C110.186 70.8477 108.773 71.3959 107.439 71.5912C107.025 71.6505 106.706 71.6482 106.481 71.5846C105.869 71.4111 105.649 71.0181 105.823 70.4056C105.933 70.0177 106.329 69.788 107.01 69.7165C107.372 69.6866 107.87 69.563 108.505 69.346C109.16 69.1346 109.606 68.9631 109.841 68.8315C110.077 68.6998 110.489 68.4526 111.077 68.0898C111.685 67.7329 112.157 67.4695 112.492 67.2997C112.832 67.1095 113.265 66.9453 113.789 66.8072C114.334 66.6748 114.8 66.6636 115.188 66.7735C115.984 66.9991 116.516 67.4584 116.783 68.1516C117.05 68.8447 117.125 69.5499 117.01 70.2672C116.715 72.1683 116.812 73.1883 117.302 73.3271C117.69 73.437 118.219 73.4767 118.889 73.446C119.559 73.4154 119.925 73.4088 119.986 73.4261C120.599 73.5997 120.818 73.9927 120.645 74.6052C120.518 75.0543 120.119 75.2942 119.448 75.3249C118.242 75.38 117.292 75.3092 116.597 75.1125C115.924 74.9216 115.453 74.4796 115.187 73.7865C114.92 73.0934 114.844 72.3881 114.959 71.6708C115.255 69.7697 115.158 68.7498 114.668 68.6109C114.402 68.5357 114.047 68.6225 113.602 68.8713C113.182 69.1054 112.842 69.2956 112.58 69.4419C112.324 69.5678 112.022 69.7361 111.676 69.9467ZM136.902 80.27C135.695 80.3251 134.786 80.2659 134.173 80.0924C133.561 79.9189 133.145 79.5583 132.925 79.0108C132.705 78.4633 132.605 77.6081 132.626 76.445C132.667 75.2877 132.616 74.6889 132.473 74.6484C131.942 74.498 131.15 75.1555 130.095 76.6211C129.697 77.17 129.17 77.6273 128.515 77.9931C127.86 78.3589 127.145 78.4319 126.369 78.2121C125.614 77.998 125.117 77.4934 124.879 76.6982C124.641 75.903 124.594 75.0957 124.738 74.2763C124.903 73.4627 125.009 72.6988 125.057 71.9846C125.104 71.2703 124.965 70.8669 124.638 70.7744C124.414 70.7107 124.233 70.7257 124.096 70.8193C123.96 70.9129 123.833 71.0093 123.717 71.1087C123.627 71.1934 123.523 71.2855 123.407 71.3848C123.317 71.4696 123.195 71.5893 123.04 71.7442C122.907 71.9048 122.75 72.0698 122.569 72.2393C121.959 72.8381 121.482 73.2764 121.138 73.5541C120.429 74.1911 119.536 74.5778 118.461 74.7142C118.047 74.7735 117.728 74.7712 117.504 74.7076C116.891 74.5341 116.672 74.1411 116.845 73.5286C116.955 73.1407 117.371 72.9168 118.094 72.8569C118.817 72.797 119.374 72.58 119.767 72.2061C120.186 71.8175 120.653 71.3763 121.167 70.8826C121.682 70.3889 122.03 70.0573 122.21 69.8878C122.411 69.7241 122.654 69.5283 122.939 69.3003C123.23 69.0519 123.468 68.91 123.655 68.8746C124.147 68.7715 124.648 68.7923 125.159 68.9369C125.996 69.1741 126.533 69.6903 126.771 70.4855C127.009 71.2807 127.046 72.0851 126.882 72.8987C126.738 73.7181 126.642 74.4849 126.594 75.1991C126.546 75.9133 126.685 76.3167 127.012 76.4093C127.339 76.5018 127.717 76.3334 128.148 75.904C128.599 75.4803 129.023 74.9941 129.421 74.4452C129.819 73.8964 130.335 73.4361 130.97 73.0646C131.625 72.6988 132.299 72.6142 132.994 72.8109C133.524 72.9613 133.875 73.2039 134.045 73.5387C134.22 73.8531 134.339 74.0963 134.4 74.2681C134.482 74.4457 134.524 74.689 134.524 74.998C134.546 75.3127 134.556 75.5474 134.557 75.7018C134.563 75.8359 134.56 76.0778 134.55 76.4276C134.476 77.62 134.545 78.2348 134.755 78.2723C135.143 78.3822 135.672 78.4218 136.342 78.3912C137.012 78.3606 137.378 78.3539 137.44 78.3713C138.052 78.5448 138.271 78.9378 138.098 79.5503C137.971 79.9995 137.572 80.2394 136.902 80.27ZM140.617 83.1421C140.54 82.944 140.306 82.3703 139.913 81.421C139.52 80.4716 139.255 79.812 139.117 79.4421C139.006 79.0576 138.843 78.5042 138.628 77.7818C138.255 76.5292 138.225 75.3517 138.537 74.2492C138.849 73.1467 139.42 72.2608 140.249 71.5915C141.099 70.928 141.983 70.7263 142.902 70.9867C143.82 71.247 144.549 71.7511 145.087 72.499C145.625 73.2469 145.861 74.1631 145.797 75.2475C145.791 75.4224 145.766 75.5916 145.719 75.7549C145.546 76.3674 145.153 76.5869 144.54 76.4133C144.091 76.2861 143.872 75.8931 143.882 75.2343C143.943 73.9283 143.504 73.1423 142.565 72.8762C142.055 72.7316 141.594 72.8769 141.184 73.3121C140.801 73.7327 140.539 74.188 140.401 74.6779C140.262 75.1679 140.199 75.6242 140.211 76.0469C140.244 76.4753 140.342 76.9881 140.503 77.5852C140.691 78.1678 140.847 78.6309 140.97 78.9746C141.301 79.9066 141.763 81.0409 142.355 82.3775C143.986 81.7589 145.552 81.4085 147.052 81.3265C147.522 81.3051 147.787 81.303 147.848 81.3204C148.461 81.4939 148.68 81.887 148.507 82.4994C148.379 82.9486 147.981 83.1885 147.31 83.2191C145.996 83.2658 144.549 83.5837 142.971 84.1731C143.508 85.9354 143.633 87.3269 143.343 88.3477C143.054 89.3686 142.357 90.2737 141.251 91.0631C140.139 91.873 139.104 92.142 138.144 91.8701C137.185 91.5982 136.481 91.046 136.033 90.2133C135.585 89.3807 135.5 88.4743 135.778 87.4944C136.206 85.9835 137.819 84.5328 140.617 83.1421ZM141.233 84.9377C139.087 86.0501 137.881 87.0758 137.615 88.015C137.477 88.505 137.499 88.9305 137.684 89.2915C137.868 89.6525 138.185 89.8967 138.634 90.0239C139.104 90.157 139.659 89.9503 140.299 89.4038C140.959 88.8631 141.376 88.2865 141.549 87.674C141.717 87.0819 141.611 86.1698 141.233 84.9377ZM74.2751 86.2739C71.9927 86.1565 70.7271 86.5368 70.4784 87.4147C70.3975 87.7005 70.4564 87.9598 70.6551 88.1926C70.8538 88.4253 71.188 88.6082 71.6575 88.7413C72.1475 88.8801 72.6298 88.8513 73.1045 88.655C73.6053 88.444 73.9223 88.1037 74.0553 87.6342C74.1883 87.1646 74.2616 86.7112 74.2751 86.2739ZM78.3333 86.6628L76.186 86.4184C76.1698 86.9431 76.0893 87.4606 75.9447 87.971C75.6383 89.0531 74.9988 89.8313 74.0264 90.3057C73.0801 90.7654 72.1068 90.8535 71.1065 90.5701C70.1265 90.2924 69.4128 89.8145 68.9653 89.1363C68.5178 88.4582 68.4097 87.7107 68.641 86.8941C69.1383 85.1383 70.8867 84.2993 73.8861 84.3772C73.5754 83.6055 73.0973 82.9187 72.4517 82.3167C71.8062 81.7148 71.1058 81.3068 70.3504 81.0928C69.6154 80.8845 68.7178 80.939 67.6576 81.2561C66.5974 81.5732 65.5986 81.985 64.6612 82.4913C61.9596 83.9314 59.9838 84.7169 58.7337 84.8479C58.3462 84.8925 58.0707 84.8916 57.9074 84.8453C57.2949 84.6718 57.0754 84.2788 57.2489 83.6663C57.3588 83.2784 57.7649 83.0516 58.4672 82.9859C59.1752 82.8998 60.0985 82.599 61.237 82.0835C62.3754 81.568 63.4265 81.0497 64.39 80.5288C65.374 80.0136 66.4603 79.6046 67.6488 79.3017C68.8373 78.9989 69.9623 78.9979 71.024 79.2987C72.106 79.6053 73.1057 80.2414 74.0231 81.2071C74.9668 82.1581 75.6046 83.2542 75.9368 84.4951C76.2808 84.5264 76.8989 84.6023 77.7911 84.7228C78.689 84.8228 79.2925 84.8725 79.6014 84.8718C79.9366 84.8565 80.1144 84.8517 80.1348 84.8575C80.7473 85.0311 80.9668 85.4241 80.7933 86.0366C80.7239 86.2816 80.6006 86.5223 80.4233 86.7588C80.2518 86.9749 80.1198 87.2462 80.0273 87.5729C79.9348 87.8996 79.9253 88.2056 79.9988 88.4911C80.0927 88.7824 80.2523 89.1143 80.4776 89.4869C80.7233 89.8653 81.1468 90.2389 81.748 90.6078C82.3435 90.9971 83.0088 91.2958 83.7437 91.5041C85.4587 91.99 86.5185 91.5184 86.9233 90.0892C87.1662 89.2317 87.0474 88.2497 86.5669 87.1431C86.1068 86.0423 85.4786 85.3791 84.6824 85.1535C84.1924 85.0147 83.6633 84.9751 83.0951 85.0346C82.5473 85.1 82.2019 85.1124 82.059 85.0719C81.4465 84.8983 81.227 84.5053 81.4005 83.8928C81.5161 83.4845 81.9848 83.2313 82.8066 83.1333C83.6487 83.0411 84.4474 83.102 85.2028 83.3161C86.5095 83.6863 87.5245 84.6576 88.248 86.23C88.9715 87.8024 89.1453 89.2521 88.7695 90.5792C88.3993 91.8858 87.6873 92.7648 86.6332 93.216C85.5849 93.6468 84.4891 93.7002 83.3458 93.3763C82.2025 93.0523 81.2279 92.5998 80.4222 92.0186C79.6048 91.4782 79.041 90.8994 78.7306 90.2822C78.0983 89.0885 77.8978 88.0833 78.1292 87.2667C78.1523 87.185 78.1812 87.0829 78.2159 86.9604C78.2768 86.8233 78.3159 86.7241 78.3333 86.6628ZM106.492 88.6866C105.941 88.5304 105.441 88.4659 104.992 88.4931C104.57 88.5057 104.088 88.5345 103.545 88.5794C103.009 88.6039 102.574 88.6238 102.238 88.6391C102.588 89.6643 102.664 90.524 102.467 91.2182C102.271 91.9124 101.921 92.5631 101.418 93.1705C100.941 93.7633 100.316 94.336 99.542 94.8886C98.7679 95.4412 97.7909 95.815 96.6109 96.0099C95.4309 96.2049 94.2386 96.1318 93.0341 95.7905C91.8295 95.4492 90.8471 94.7518 90.0869 93.6983C89.3471 92.6506 89.1623 91.4734 89.5324 90.1668C90.0355 88.3906 91.0206 87.0928 92.4878 86.2734C93.9607 85.4336 95.4934 85.2393 97.0858 85.6905C97.6983 85.864 97.9178 86.257 97.7443 86.8695C97.5708 87.482 97.1778 87.7015 96.5653 87.528C95.4629 87.2156 94.4081 87.3578 93.401 87.9547C92.3938 88.5515 91.7168 89.4624 91.3698 90.6874C91.1501 91.4632 91.2755 92.1494 91.7461 92.7459C92.2168 93.3424 92.8604 93.7563 93.677 93.9877C94.5141 94.2249 95.3856 94.2623 96.2917 94.1C97.2183 93.9435 97.9609 93.6576 98.5195 93.2425C99.6893 92.383 100.361 91.647 100.534 91.0345C100.708 90.422 100.711 89.9046 100.544 89.4823C100.377 89.06 100.131 88.7589 99.8074 88.5789C99.2966 88.2798 99.0904 87.9567 99.1887 87.6096C99.287 87.2625 99.5153 87.0405 99.8736 86.9435C100.232 86.8465 100.746 86.7827 101.417 86.7521C102.087 86.7215 102.747 86.688 103.397 86.6516C104.041 86.6356 104.497 86.6214 104.765 86.6092C105.631 86.5898 106.38 86.6698 107.013 86.8491C108.85 87.3697 109.249 89.4675 108.208 93.1424C107.456 95.7966 107.386 97.2104 107.999 97.3839C108.264 97.4591 108.618 97.2616 109.06 96.7913C109.624 96.2013 110.208 95.5398 110.813 94.8069C111.444 94.0593 111.89 93.5351 112.151 93.2343C112.439 92.9189 112.822 92.542 113.299 92.1037C113.77 91.6859 114.199 91.3774 114.586 91.1784C115.585 90.6894 116.557 90.5677 117.502 90.8134C118.073 90.9754 118.44 91.2005 118.601 91.4887C118.782 91.7827 118.914 92.0185 118.996 92.1961C119.078 92.3737 119.122 92.6068 119.128 92.8954C119.155 93.1897 119.176 93.4272 119.191 93.6079C119.206 93.7886 119.188 94.048 119.136 94.3863C119.085 94.7245 119.052 94.9578 119.037 95.086C118.969 95.64 118.894 96.0599 118.813 96.3457C118.341 98.9468 118.299 100.302 118.686 100.412C119.095 100.528 119.467 100.578 119.802 100.563C120.137 100.547 120.335 100.548 120.396 100.566C121.009 100.739 121.228 101.132 121.055 101.745C120.928 102.194 120.562 102.432 119.959 102.46C119.356 102.487 118.84 102.441 118.411 102.319C118.003 102.203 117.688 102.07 117.466 101.919C117.264 101.774 117.108 101.586 116.997 101.356C116.885 101.126 116.781 100.909 116.685 100.705C116.614 100.487 116.571 100.21 116.556 99.8747C116.541 99.5395 116.531 99.2612 116.528 99.0397C116.525 98.8182 116.541 98.5252 116.578 98.1608C116.636 97.8021 116.678 97.5382 116.703 97.3691C116.807 96.6926 116.89 96.2421 116.954 96.0175C117.268 94.2097 117.347 93.1514 117.192 92.8428C117.113 92.7322 117.032 92.6653 116.951 92.6422C116.481 92.5092 115.968 92.6065 115.412 92.9342C114.862 93.2414 114.398 93.5951 114.02 93.9953C113.662 94.4013 113.2 94.943 112.633 95.6205C112.093 96.2833 111.724 96.7301 111.526 96.9608C111.334 97.1711 111.02 97.5012 110.584 97.951C110.174 98.3862 109.838 98.677 109.576 98.8233C108.79 99.2622 108.091 99.395 107.478 99.2214C105.641 98.7008 105.272 96.5009 106.37 92.6218C107.064 90.1718 107.105 88.8601 106.492 88.6866ZM124.919 84.3137C125.093 83.7012 125.486 83.4817 126.098 83.6552C126.588 83.7941 126.808 84.1871 126.757 84.8343C126.632 86.3648 126.504 87.6739 126.372 88.7614C126.241 89.8489 125.605 92.4037 124.466 96.4257C124.292 97.0382 123.899 97.2577 123.287 97.0841C122.675 96.9106 122.455 96.5176 122.629 95.9051C123.768 91.883 124.413 89.2539 124.565 88.0177C124.62 87.7465 124.684 87.092 124.757 86.0542C124.831 85.0163 124.885 84.4362 124.919 84.3137ZM120.807 102.336C120.98 101.724 121.435 101.522 122.17 101.73C122.986 101.961 123.279 102.485 123.048 103.302C122.874 103.914 122.481 104.134 121.869 103.96C121.542 103.868 121.26 103.656 121.023 103.324C120.792 102.972 120.72 102.642 120.807 102.336Z" fill="white"/>
<g clip-path="url(#clip1_791_17)">
<path fill-rule="evenodd" clip-rule="evenodd" d="M151.248 106.943C152.338 107.15 153.537 107.279 154.631 107.089C155.931 106.864 156.838 106.125 157.659 105.268C158.712 104.167 159.632 102.875 160.752 101.81C161.168 101.415 161.536 101.389 161.696 101.375C162.1 101.341 162.42 101.456 162.68 101.635C162.988 101.847 163.359 102.228 163.334 102.938C163.33 103.039 163.315 103.189 163.257 103.371C163.214 103.505 163.015 103.884 162.954 104.053C162.804 104.469 162.643 104.879 162.477 105.289C161.924 106.652 161.405 107.78 161.307 109.273C161.174 111.298 161.399 112.717 162.216 113.766C163.006 114.78 164.283 115.424 166.046 116.024C166.217 116.075 166.384 116.131 166.545 116.191C167.31 116.476 167.707 117.321 167.438 118.092C167.17 118.863 166.335 119.278 165.558 119.027C165.396 118.974 165.237 118.922 165.081 118.867C162.645 118.148 159.081 118.586 156.686 119.393C155.948 119.643 154.471 120.683 153.283 121.202C152.405 121.585 151.601 121.706 151.052 121.592C150.683 121.517 150.433 121.349 150.25 121.171C149.984 120.912 149.824 120.593 149.783 120.209C149.761 119.999 149.776 119.744 149.876 119.465C149.924 119.331 150.101 119.022 150.182 118.884C150.319 118.343 150.418 117.796 150.572 117.26C150.937 115.981 150.789 114.949 150.668 113.629C150.555 112.394 150.207 111.456 149.482 110.445C149.373 110.339 148.491 109.485 148.212 109.128C147.806 108.605 147.761 108.102 147.781 107.857C147.815 107.441 147.965 107.148 148.134 106.93C148.385 106.608 148.716 106.401 149.135 106.323C149.395 106.273 149.737 106.278 150.123 106.409C150.422 106.509 151.146 106.89 151.248 106.943ZM158.345 108.666C158.331 108.8 158.319 108.937 158.31 109.076C158.115 112.043 158.649 114.076 159.847 115.612L159.887 115.663C158.389 115.827 156.936 116.14 155.727 116.547C155.229 116.715 154.419 117.195 153.566 117.675C153.916 116.191 153.803 114.933 153.659 113.355C153.549 112.151 153.286 111.139 152.809 110.161C153.598 110.205 154.391 110.179 155.145 110.048C156.4 109.83 157.437 109.333 158.345 108.666Z" fill="#FF6B01"/>
</g>
<defs>
<clipPath id="clip0_791_17">
<rect width="24.5987" height="24.5987" fill="white" transform="translate(37.1 13.1639) rotate(30.3517)"/>
</clipPath>
<clipPath id="clip1_791_17">
<rect width="23.4273" height="23.4273" fill="white" transform="translate(153.909 96.4944) rotate(30.3517)"/>
</clipPath>
</defs>
</svg>
